<?xml version="1.0"?>
<svg xmlns="http://www.w3.org/2000/svg" height="512px" viewBox="0 0 512 512" width="512px" class=""><g><g fill="#8bc89c"><path d="m146.246 188.187a7.974 7.974 0 0 1 -5.656-2.343l-84.852-84.852a8 8 0 0 1 11.313-11.312l84.849 84.851a8 8 0 0 1 -5.656 13.656z" data-original="#8BC89C" class="" style="fill:#FF0000" data-old_color="#8BC89C"/><path d="m180.188 154.242a7.975 7.975 0 0 1 -5.657-2.344l-84.855-84.851a8 8 0 1 1 11.312-11.313l84.856 84.852a8 8 0 0 1 -5.656 13.656z" data-original="#8BC89C" class="" style="fill:#FF0000" data-old_color="#8BC89C"/><path d="m112.305 222.125a7.975 7.975 0 0 1 -5.657-2.344l-84.848-84.851a8 8 0 0 1 11.312-11.313l84.852 84.852a8 8 0 0 1 -5.656 13.656z" data-original="#8BC89C" class="" style="fill:#FF0000" data-old_color="#8BC89C"/><path d="m214.129 120.305a7.975 7.975 0 0 1 -5.656-2.344l-84.856-84.852a8 8 0 0 1 11.313-11.309l84.855 84.851a8 8 0 0 1 -5.656 13.657z" data-original="#8BC89C" class="" style="fill:#FF0000" data-old_color="#8BC89C"/></g><path d="m291.466 183.466h32v248h-32z" fill="#a98e72" transform="matrix(.707 -.707 .707 .707 -127.357 307.466)" data-original="#A98E72" class=""/><path d="m178.814 178.814h48v48h-48z" fill="#83bd93" transform="matrix(.707 -.707 .707 .707 -84.008 202.814)" data-original="#83BD93" class="" data-old_color="#83bd93" style="fill:#FF0000"/><path d="m206.613 218.613h32v8h-32z" fill="#9b8268" transform="matrix(.707 -.707 .707 .707 -92.209 222.613)" data-original="#9B8268" class=""/><path d="m230 141.683-88 88c-6.943 6.943-17.637 7.506-23.885 1.258l-11.315-11.31 113.148-113.147 11.314 11.316c6.248 6.246 5.685 16.94-1.262 23.883z" fill="#83bd93" data-original="#83BD93" class="" data-old_color="#83bd93" style="fill:#FF0000"/><path d="m166.415 183.95h48v12.93h-48z" fill="#6a9876" transform="matrix(.707 -.707 .707 .707 -78.872 190.415)" data-original="#6A9876" class="active-path" style="fill:#D60E0E" data-old_color="#6a9876"/><path d="m389.492 465.375a8 8 0 0 1 -5.656-2.344 56 56 0 1 1 79.191-79.195 8 8 0 0 1 0 11.312l-67.879 67.883a8 8 0 0 1 -5.656 2.344zm33.938-81.945a40.022 40.022 0 0 0 -33.375 62.07l55.445-55.445a39.685 39.685 0 0 0 -22.07-6.625z" fill="#83bd93" data-original="#83BD93" class="" data-old_color="#83bd93" style="fill:#FF0000"/><path d="m355.842 347.842h32v48h-32z" fill="#9b8268" transform="matrix(.707 -.707 .707 .707 -154.022 371.842)" data-original="#9B8268" class=""/><path d="m362.177 354.177h32v48h-32z" fill="#83bd93" transform="matrix(.707 -.707 .707 .707 -156.646 378.177)" data-original="#83BD93" class="" data-old_color="#83bd93" style="fill:#FF0000"/><path d="m378.746 418.747h111.998v31.998h-111.998z" fill="#a98e72" transform="matrix(.707 -.707 .707 .707 -180.078 434.746)" data-original="#A98E72" class=""/><path d="m366.803 415.69h111.998v14.222h-111.998z" fill="#9e846b" transform="matrix(.707 -.707 .707 .707 -175.13 422.802)" data-original="#9E846B" class="" data-old_color="#9e846b" style="fill:#9E846B"/></g> </svg>
